<svg width="70" height="70" viewBox="0 0 70 70" fill="none" xmlns="http://www.w3.org/2000/svg">
<g clip-path="url(#clip0_316_336)">
<path d="M0 33.2787C0 17.591 0 9.74712 4.83909 4.87354C9.67821 0 17.4666 0 33.0435 0H36.4617C52.0385 0 59.8269 0 64.6662 4.87354C69.5052 9.74712 69.5052 17.591 69.5052 33.2787V36.7213C69.5052 52.409 69.5052 60.2529 64.6662 65.1266C59.8269 70 52.0385 70 36.4617 70H33.0435C17.4666 70 9.67821 70 4.83909 65.1266C0 60.2529 0 52.409 0 36.7213V33.2787Z" fill="#0077FF"/>
<path d="M16.9284 0.54951C21.8118 4.17232e-08 28.0958 0 36.3812 0H40.1448C48.4303 0 54.7142 2.08616e-07 59.5977 0.54951C59.9145 0.983923 60.0729 1.41445 60.0729 1.86543C60.0729 3.80646 57.1385 5.36847 51.2697 8.4925L50.7126 8.78895C44.8439 11.913 41.9095 13.475 38.263 13.475C34.6166 13.475 31.6822 11.913 25.8133 8.78895L25.2564 8.4925C19.3876 5.36847 16.4531 3.80646 16.4531 1.86544C16.4531 1.41445 16.6115 0.983923 16.9284 0.54951Z" fill="#00D9ED"/>
<path d="M21.5732 14.7935C27.5091 17.9284 30.4771 19.4958 32.3212 22.4174C34.1652 25.339 34.1652 28.4739 34.1652 34.7435V35.3384C34.1652 41.6083 34.1652 44.7429 32.3212 45.7169C30.4771 46.6906 27.5092 45.1234 21.5732 41.9884L21.0099 41.6909C15.074 38.5563 12.1061 36.9887 10.262 34.0672C8.41797 31.1455 8.41797 28.0107 8.41797 21.741V21.146C8.41797 14.8764 8.41797 11.7415 10.262 10.7676C12.1061 9.79376 15.074 11.3612 21.0099 14.496L21.5732 14.7935Z" fill="#00D9ED"/>
<path d="M54.9528 15.1188C49.0171 18.2537 46.049 19.8211 44.2047 22.7427C42.3608 25.6643 42.3608 28.7992 42.3608 35.069V35.664C42.3608 41.9335 42.3608 45.0685 44.2047 46.0422C46.049 47.0162 49.0167 45.4486 54.9528 42.314L55.516 42.0165C61.4521 38.8815 64.4198 37.3142 66.2641 34.3925C68.108 31.4709 68.108 28.336 68.108 22.0663V21.4714C68.108 15.2017 68.108 12.0668 66.2641 11.0929C64.4198 10.1191 61.4521 11.6865 55.516 14.8213L54.9528 15.1188Z" fill="white"/>
</g>
<defs>
<clipPath id="clip0_316_336">
<rect width="70" height="70" fill="white"/>
</clipPath>
</defs>
</svg>
